<?xml version="1.0" encoding="UTF-8"?>
<svg width="100%" height="100%" viewBox="0 0 250 350" version="1.1" xmlns="http://www.w3.org/2000/svg" xmlns:xlink="http://www.w3.org/1999/xlink">
    <!-- Generator: Sketch 48.2 (47327) - http://www.bohemiancoding.com/sketch -->
    <title>roundedstripe1</title>
    <desc>Created with Sketch.</desc>
    <defs>
        <rect id="path-1" x="0" y="0" width="160" height="80" rx="40"></rect>
    </defs>
    <g id="Page-1" stroke="none" stroke-width="1" fill="none" fill-rule="evenodd">
        <g id="roundedstripe1">
            <g id="Group" transform="translate(45.000000, 135.000000)">
                <mask id="mask-2" fill="white">
                    <use xlink:href="#path-1"></use>
                </mask>
                <rect stroke="#D8D8D8" stroke-width="5" x="2.5" y="2.5" width="155" height="75" rx="37.5"></rect>
                <g id="stripes" mask="url(#mask-2)" fill="#D8D8D8">
                    <g transform="translate(-38.000000, -135.000000)" id="Rectangle-2">
                        <rect x="0" y="0" width="5" height="350"></rect>
                        <rect x="10" y="0" width="5" height="350"></rect>
                        <rect x="20" y="0" width="5" height="350"></rect>
                        <rect x="30" y="0" width="5" height="350"></rect>
                        <rect x="40" y="0" width="5" height="350"></rect>
                        <rect x="50" y="0" width="5" height="350"></rect>
                        <rect x="60" y="0" width="5" height="350"></rect>
                        <rect x="70" y="0" width="5" height="350"></rect>
                        <rect x="80" y="0" width="5" height="350"></rect>
                        <rect x="90" y="0" width="5" height="350"></rect>
                        <rect x="100" y="0" width="5" height="350"></rect>
                        <rect x="110" y="0" width="5" height="350"></rect>
                        <rect x="120" y="0" width="5" height="350"></rect>
                        <rect x="130" y="0" width="5" height="350"></rect>
                        <rect x="140" y="0" width="5" height="350"></rect>
                        <rect x="150" y="0" width="5" height="350"></rect>
                        <rect x="160" y="0" width="5" height="350"></rect>
                        <rect x="170" y="0" width="5" height="350"></rect>
                        <rect x="180" y="0" width="5" height="350"></rect>
                        <rect x="190" y="0" width="5" height="350"></rect>
                        <rect x="200" y="0" width="5" height="350"></rect>
                        <rect x="210" y="0" width="5" height="350"></rect>
                        <rect x="220" y="0" width="5" height="350"></rect>
                        <rect x="230" y="0" width="5" height="350"></rect>
                    </g>
                </g>
            </g>
        </g>
    </g>
</svg>
